<svg width="30" height="30" viewBox="0 0 30 30" fill="none" xmlns="http://www.w3.org/2000/svg">
<circle cx="15" cy="15" r="15" fill="#9C4DF4"/>
<path d="M17.5003 15.705L15.3553 13.585C15.3089 13.5381 15.2536 13.5009 15.1926 13.4755C15.1317 13.4501 15.0663 13.4371 15.0003 13.4371C14.9343 13.4371 14.869 13.4501 14.8081 13.4755C14.7471 13.5009 14.6918 13.5381 14.6453 13.585L12.5253 15.705C12.4785 15.7515 12.4413 15.8068 12.4159 15.8677C12.3905 15.9286 12.3774 15.994 12.3774 16.06C12.3774 16.126 12.3905 16.1913 12.4159 16.2523C12.4413 16.3132 12.4785 16.3685 12.5253 16.415C12.619 16.5081 12.7457 16.5604 12.8778 16.5604C13.0099 16.5604 13.1367 16.5081 13.2303 16.415L15.0003 14.645L16.7703 16.415C16.8635 16.5073 16.9892 16.5594 17.1203 16.56C17.1861 16.5604 17.2514 16.5477 17.3123 16.5229C17.3732 16.498 17.4286 16.4613 17.4753 16.415C17.5239 16.3702 17.5631 16.3162 17.5906 16.2561C17.6182 16.1961 17.6335 16.1312 17.6359 16.0652C17.6382 15.9992 17.6274 15.9333 17.6042 15.8715C17.5809 15.8097 17.5456 15.7531 17.5003 15.705Z" fill="white"/>
</svg>
