<svg width="30" height="30" viewBox="0 0 30 30" fill="none" xmlns="http://www.w3.org/2000/svg">
<circle cx="15" cy="15" r="15" fill="#FF6652"/>
<g clip-path="url(#clip0_44_9997)">
<path d="M19.0125 16.6371C18.5776 16.2022 18.0862 15.8522 17.5665 15.587C17.4842 15.5464 17.415 15.4834 17.3668 15.4052C17.3187 15.327 17.2935 15.2369 17.2942 15.1451L17.4357 13.8935C15.9578 13.3702 14.1193 13.3349 12.5849 13.8723L12.6874 15.1486C12.6839 15.3431 12.5743 15.5092 12.4117 15.5941C11.8884 15.8557 11.4005 16.2093 10.9656 16.6441C10.7747 16.8351 10.4565 16.8351 10.2656 16.6441L9.04231 15.4209C8.85139 15.2299 8.70643 14.9153 8.9716 14.6501C12.2561 11.3656 17.7185 11.3691 20.9995 14.6501C21.2505 14.9011 21.1268 15.2229 20.9323 15.4173L19.7126 16.6371C19.5216 16.828 19.2034 16.828 19.0125 16.6371Z" fill="white"/>
</g>
<defs>
<clipPath id="clip0_44_9997">
<rect width="12" height="12" fill="white" transform="matrix(0.707107 0.707107 0.707107 -0.707107 6.5 15.0001)"/>
</clipPath>
</defs>
</svg>
