<svg width="114" height="31" viewBox="0 0 114 31" fill="none" xmlns="http://www.w3.org/2000/svg">
<path d="M48.64 7.56342V4.14342H33.13V24.7534H48.64V21.3334H36.88V15.9634H47.53V12.5434H36.88V7.56342H48.64ZM63.9016 3.78342V11.6434C62.6716 9.90342 60.8116 8.88342 58.5316 8.88342C54.4216 8.88342 51.4216 12.2434 51.4216 16.9834C51.4216 21.7534 54.4216 25.1134 58.5316 25.1134C60.8116 25.1134 62.6716 24.0934 63.9016 22.3534V24.7534H67.5616V3.78342H63.9016ZM59.5216 21.9934C56.9116 21.9934 55.0516 19.8934 55.0516 16.9834C55.0516 14.0734 56.9116 12.0034 59.5216 12.0034C62.1016 12.0034 63.9016 14.0734 63.9016 16.9834C63.9016 19.8934 62.1016 21.9934 59.5216 21.9934ZM82.1819 9.24342V19.0534C81.9419 20.7034 80.3519 21.9934 78.4319 21.9934C76.5119 21.9934 75.1619 20.4934 75.1619 18.3934V9.24342H71.6219V19.1134C71.6219 22.6234 73.9919 25.1134 77.3819 25.1134C79.4219 25.1134 81.2219 24.1234 82.1819 22.6834V24.7534H85.8419V9.24342H82.1819ZM95.0652 24.7534H98.5152L105.085 9.24342H101.185L96.7752 20.5234L92.2752 9.24342H88.4052L95.0652 24.7534ZM109.489 6.90342C110.629 6.90342 111.559 5.91342 111.559 4.80342C111.559 3.69342 110.629 2.73342 109.489 2.73342C108.319 2.73342 107.389 3.69342 107.389 4.80342C107.389 5.91342 108.319 6.90342 109.489 6.90342ZM107.629 24.7534H111.289V9.24342H107.629V24.7534Z" fill="#0A033C"/>
<rect y="0.753418" width="25" height="30" rx="5" fill="#FF6652"/>
<path d="M5.75321 8.87793C5.75272 8.87793 5.75218 8.87793 5.75169 8.87793C5.58145 8.87793 5.42133 8.94429 5.30042 9.0649C5.17817 9.18684 5.11084 9.3492 5.11084 9.52205V19.1806C5.11084 19.5347 5.40011 19.8236 5.75575 19.8245C7.25503 19.8281 9.76692 20.1406 11.4998 21.954V11.8461C11.4998 11.726 11.4691 11.6132 11.4112 11.5199C9.98898 9.22945 7.25588 8.88144 5.75321 8.87793Z" fill="white"/>
<path d="M18.8889 19.1806V9.52205C18.8889 9.3492 18.8215 9.18684 18.6993 9.0649C18.5784 8.94429 18.4181 8.87793 18.2481 8.87793C18.2475 8.87793 18.247 8.87793 18.2465 8.87793C16.7439 8.88151 14.0108 9.22951 12.5885 11.5199C12.5306 11.6133 12.5 11.7261 12.5 11.8461V21.954C14.2329 20.1406 16.7447 19.8281 18.244 19.8245C18.5996 19.8236 18.8889 19.5348 18.8889 19.1806Z" fill="white"/>
<path d="M20.3562 11.1055H19.8891V19.1807C19.8891 20.085 19.1524 20.8224 18.2467 20.8247C16.975 20.8277 14.8781 21.0764 13.3931 22.4819C15.9614 21.853 18.669 22.2618 20.212 22.6134C20.4047 22.6573 20.6038 22.612 20.7581 22.489C20.9119 22.3662 21.0002 22.1828 21.0002 21.9859V11.7495C21.0002 11.3944 20.7113 11.1055 20.3562 11.1055Z" fill="white"/>
<path d="M4.11103 19.1807V11.1055H3.644C3.28897 11.1055 3 11.3944 3 11.7495V21.9857C3 22.1827 3.08824 22.3661 3.24206 22.4888C3.3963 22.6118 3.59521 22.6573 3.78818 22.6133C5.33122 22.2616 8.0388 21.8528 10.6071 22.4817C9.12208 21.0762 7.02523 20.8276 5.75352 20.8246C4.84788 20.8224 4.11103 20.085 4.11103 19.1807Z" fill="white"/>
</svg>
