<svg width="12" height="23" viewBox="0 0 12 23" fill="none" xmlns="http://www.w3.org/2000/svg">
<path d="M11.499 0.757995L8.64616 0.753418C5.44105 0.753418 3.36976 2.87849 3.36976 6.16759V8.66389H0.501322C0.253455 8.66389 0.0527344 8.86484 0.0527344 9.1127V12.7296C0.0527344 12.9774 0.253683 13.1781 0.501322 13.1781H3.36976V22.3046C3.36976 22.5525 3.57048 22.7532 3.81835 22.7532H7.56085C7.80872 22.7532 8.00944 22.5522 8.00944 22.3046V13.1781H11.3633C11.6112 13.1781 11.8119 12.9774 11.8119 12.7296L11.8133 9.1127C11.8133 8.99369 11.7659 8.87971 11.6819 8.79549C11.5979 8.71127 11.4835 8.66389 11.3645 8.66389H8.00944V6.54775C8.00944 5.53064 8.25181 5.01431 9.57675 5.01431L11.4986 5.01362C11.7462 5.01362 11.9469 4.81267 11.9469 4.56504V1.20658C11.9469 0.959173 11.7464 0.758453 11.499 0.757995Z" fill="#0A033C"/>
</svg>
