<svg width="36" height="37" viewBox="0 0 36 37" fill="none" xmlns="http://www.w3.org/2000/svg">
<circle cx="18" cy="18.7534" r="18" fill="#FF6652"/>
<path d="M18.0004 12.208C16.2228 12.208 15.9997 12.2158 15.3016 12.2476C14.6048 12.2795 14.1291 12.3898 13.713 12.5516C13.2825 12.7188 12.9173 12.9425 12.5535 13.3064C12.1894 13.6702 11.9658 14.0354 11.7981 14.4658C11.6358 14.8821 11.5254 15.3579 11.494 16.0544C11.4628 16.7526 11.4546 16.9758 11.4546 18.7535C11.4546 20.5311 11.4625 20.7535 11.4941 21.4517C11.5262 22.1485 11.6365 22.6241 11.7982 23.0403C11.9655 23.4708 12.1892 23.836 12.5531 24.1998C12.9168 24.5639 13.2819 24.7881 13.7122 24.9553C14.1286 25.1171 14.6044 25.2275 15.301 25.2594C15.9992 25.2911 16.2221 25.2989 17.9996 25.2989C19.7773 25.2989 19.9997 25.2911 20.6979 25.2594C21.3947 25.2275 21.8708 25.1171 22.2873 24.9553C22.7176 24.7881 23.0822 24.5639 23.4459 24.1998C23.81 23.836 24.0336 23.4708 24.2013 23.0405C24.3622 22.6241 24.4727 22.1484 24.5054 21.4518C24.5368 20.7536 24.545 20.5311 24.545 18.7535C24.545 16.9758 24.5368 16.7527 24.5054 16.0546C24.4727 15.3577 24.3622 14.8821 24.2013 14.4659C24.0336 14.0354 23.81 13.6702 23.4459 13.3064C23.0818 12.9423 22.7177 12.7187 22.2869 12.5516C21.8696 12.3898 21.3937 12.2795 20.6969 12.2476C19.9987 12.2158 19.7765 12.208 17.9983 12.208H18.0004ZM17.4132 13.3876C17.5875 13.3873 17.7819 13.3876 18.0004 13.3876C19.748 13.3876 19.9551 13.3938 20.6452 13.4252C21.2834 13.4544 21.6297 13.561 21.8605 13.6506C22.1659 13.7692 22.3837 13.9111 22.6126 14.1401C22.8417 14.3692 22.9835 14.5874 23.1024 14.8929C23.192 15.1233 23.2988 15.4697 23.3278 16.1079C23.3592 16.7979 23.366 17.0051 23.366 18.752C23.366 20.4988 23.3592 20.706 23.3278 21.396C23.2986 22.0342 23.192 22.3806 23.1024 22.611C22.9838 22.9165 22.8417 23.134 22.6126 23.363C22.3835 23.592 22.166 23.7339 21.8605 23.8525C21.63 23.9425 21.2834 24.0489 20.6452 24.078C19.9552 24.1094 19.748 24.1162 18.0004 24.1162C16.2527 24.1162 16.0455 24.1094 15.3556 24.078C14.7174 24.0486 14.371 23.942 14.1402 23.8524C13.8347 23.7337 13.6166 23.5919 13.3875 23.3628C13.1584 23.1337 13.0166 22.9161 12.8977 22.6105C12.8081 22.38 12.7013 22.0337 12.6723 21.3955C12.6409 20.7055 12.6346 20.4982 12.6346 18.7503C12.6346 17.0024 12.6409 16.7962 12.6723 16.1062C12.7015 15.4681 12.8081 15.1217 12.8977 14.891C13.0163 14.5855 13.1584 14.3673 13.3875 14.1382C13.6166 13.9091 13.8347 13.7673 14.1402 13.6484C14.3709 13.5584 14.7174 13.4521 15.3556 13.4227C15.9594 13.3955 16.1934 13.3873 17.4132 13.3859V13.3876ZM21.4942 14.4744C21.0606 14.4744 20.7088 14.8258 20.7088 15.2596C20.7088 15.6932 21.0606 16.045 21.4942 16.045C21.9278 16.045 22.2796 15.6932 22.2796 15.2596C22.2796 14.8259 21.9278 14.4741 21.4942 14.4741V14.4744ZM18.0004 15.3921C16.1441 15.3921 14.6391 16.8971 14.6391 18.7535C14.6391 20.6098 16.1441 22.1141 18.0004 22.1141C19.8567 22.1141 21.3611 20.6098 21.3611 18.7535C21.3611 16.8971 19.8565 15.3921 18.0003 15.3921H18.0004ZM18.0004 16.5716C19.2053 16.5716 20.1821 17.5484 20.1821 18.7535C20.1821 19.9584 19.2053 20.9353 18.0004 20.9353C16.7954 20.9353 15.8186 19.9584 15.8186 18.7535C15.8186 17.5484 16.7954 16.5716 18.0004 16.5716Z" fill="white"/>
</svg>
