<svg width="19" height="20" viewBox="0 0 19 20" fill="none" xmlns="http://www.w3.org/2000/svg">
<path d="M15.8502 16.4474H13.0939V12.1734C13.0939 11.1542 13.0756 9.84224 11.6604 9.84224C10.2248 9.84224 10.0051 10.9527 10.0051 12.0992V16.4471H7.24881V7.65805H9.89488V8.85917H9.93192C10.1967 8.41086 10.5794 8.04206 11.0391 7.79204C11.4989 7.54203 12.0185 7.42017 12.5427 7.43943C15.3363 7.43943 15.8514 9.25888 15.8514 11.6259L15.8502 16.4474ZM4.13878 6.45665C3.82242 6.4567 3.51314 6.36387 3.25007 6.18989C2.987 6.01591 2.78195 5.7686 2.66084 5.47922C2.53972 5.18985 2.50798 4.87141 2.56964 4.56418C2.6313 4.25694 2.7836 3.97472 3.00726 3.75318C3.23091 3.53165 3.5159 3.38076 3.82616 3.31959C4.13643 3.25843 4.45804 3.28973 4.75033 3.40955C5.04263 3.52937 5.29248 3.73232 5.46828 3.99274C5.64409 4.25316 5.73796 4.55935 5.73802 4.87259C5.73805 5.08058 5.69671 5.28653 5.61636 5.4787C5.53601 5.67086 5.41824 5.84548 5.26973 5.99257C5.12123 6.13966 4.94491 6.25635 4.75086 6.33598C4.55681 6.41561 4.34883 6.45661 4.13878 6.45665ZM5.51693 16.4474H2.75775V7.65805H5.51693V16.4474ZM17.2244 0.754673H1.3727C1.01292 0.750653 0.666217 0.88823 0.408822 1.13717C0.151426 1.38612 0.00439102 1.72606 0 2.0823V17.843C0.00424073 18.1994 0.15119 18.5396 0.408576 18.7888C0.665963 19.038 1.01274 19.1758 1.3727 19.172H17.2244C17.5851 19.1765 17.9328 19.039 18.1912 18.7899C18.4496 18.5407 18.5975 18.2001 18.6025 17.843V2.08116C18.5974 1.72422 18.4494 1.38389 18.191 1.13495C17.9325 0.886012 17.5849 0.748828 17.2244 0.753535" fill="#0A033C"/>
</svg>
