<svg width="11" height="12" viewBox="0 0 11 12" fill="none" xmlns="http://www.w3.org/2000/svg">
<g clip-path="url(#clip0_44_9964)">
<path d="M5.79224 3.68089C5.53712 3.93546 5.12364 3.93546 4.86853 3.68089C4.61349 3.42632 4.61349 3.01355 4.86853 2.75898C5.12364 2.50441 5.53712 2.50441 5.79224 2.75898C6.04728 3.01355 6.04728 3.42632 5.79224 3.68089Z" fill="#9C4DF4"/>
<path d="M6.68497 4.66861C6.6054 4.66861 6.52583 4.63824 6.46525 4.57742C6.34408 4.4561 6.34432 4.25952 6.46564 4.13844C6.7115 3.89305 6.84687 3.56684 6.84687 3.2199C6.84687 2.87297 6.7115 2.54676 6.46564 2.30137C6.34432 2.1802 6.34408 1.98371 6.46525 1.86231C6.58633 1.74099 6.78291 1.74075 6.90423 1.86191C7.26764 2.22462 7.46775 2.70684 7.46775 3.2199C7.46775 3.73289 7.26764 4.21519 6.90423 4.57789C6.84365 4.63839 6.76431 4.66861 6.68497 4.66861Z" fill="#9C4DF4"/>
<path d="M7.38712 5.58257C7.30755 5.58257 7.22798 5.55221 7.1674 5.49147C7.04623 5.37007 7.04647 5.17357 7.16779 5.05241C7.65825 4.56289 7.92844 3.9121 7.92844 3.21989C7.92844 2.52767 7.65825 1.87689 7.16779 1.38737C7.04647 1.2662 7.04623 1.0697 7.1674 0.948306C7.28856 0.826985 7.48506 0.82675 7.60638 0.947913C8.21439 1.55475 8.54932 2.36162 8.54924 3.21989C8.54924 4.07815 8.21439 4.8851 7.60638 5.49194C7.5458 5.55236 7.46646 5.58257 7.38712 5.58257Z" fill="#9C4DF4"/>
<path d="M3.97524 4.66839C3.8959 4.66839 3.81656 4.63818 3.7559 4.57768C3.39249 4.21497 3.19238 3.73267 3.19238 3.21969C3.19238 2.70663 3.39249 2.22441 3.7559 1.8617C3.87723 1.74054 4.0738 1.74069 4.19489 1.86209C4.31605 1.98341 4.31582 2.17999 4.1945 2.30115C3.94864 2.54654 3.81327 2.87276 3.81327 3.21969C3.81327 3.56662 3.94864 3.89284 4.1945 4.13822C4.31582 4.25931 4.31605 4.45589 4.19489 4.57721C4.13431 4.63794 4.05473 4.66839 3.97524 4.66839Z" fill="#9C4DF4"/>
<path d="M3.27304 5.58286C3.19362 5.58286 3.11429 5.55265 3.0537 5.49214C2.44569 4.8853 2.11084 4.07844 2.11084 3.22017C2.11084 2.36182 2.44569 1.55496 3.0537 0.948118C3.17502 0.827033 3.3716 0.82719 3.49269 0.948589C3.61385 1.06991 3.61362 1.26641 3.49229 1.38757C3.00183 1.87709 2.73165 2.52787 2.73165 3.22009C2.73165 3.91231 3.00183 4.56317 3.49229 5.05269C3.61362 5.17385 3.61385 5.37035 3.49269 5.49175C3.4321 5.55249 3.35253 5.58286 3.27304 5.58286Z" fill="#9C4DF4"/>
<path d="M9.42139 6.1192H1.2384C0.837323 6.1192 0.512207 6.44432 0.512207 6.84532V10.4166C0.512207 10.8177 0.837323 11.1428 1.2384 11.1428H9.42132C9.82239 11.1428 10.1475 10.8177 10.1475 10.4166V6.84532C10.1475 6.44432 9.82239 6.1192 9.42139 6.1192ZM2.90024 10.211H1.75648C1.5851 10.211 1.44612 10.0721 1.44612 9.90061V7.36136C1.44612 7.18997 1.5851 7.05092 1.75648 7.05092C1.92795 7.05092 2.06693 7.1899 2.06693 7.36136V9.59017H2.90024C3.0717 9.59017 3.21068 9.72914 3.21068 9.90061C3.21068 10.0721 3.0717 10.211 2.90024 10.211ZM4.17245 9.90061C4.17245 10.0721 4.03347 10.211 3.86201 10.211C3.69054 10.211 3.55157 10.0721 3.55157 9.90061V7.36136C3.55157 7.18997 3.69054 7.05092 3.86201 7.05092C4.03347 7.05092 4.17245 7.1899 4.17245 7.36136V9.90061ZM6.78437 7.45113L6.01776 9.9903C6.01768 9.99054 6.0176 9.99077 6.01752 9.99101C5.93426 10.2752 5.5098 10.2682 5.42363 9.99101C5.42356 9.99077 5.42348 9.99054 5.4234 9.9903L4.65679 7.45113C4.60727 7.28697 4.70011 7.11378 4.86427 7.06418C5.02828 7.01466 5.20163 7.1075 5.25115 7.27166L5.72058 8.82646L6.19001 7.27166C6.2396 7.1075 6.41279 7.01459 6.57696 7.06418C6.74105 7.11378 6.83396 7.28697 6.78437 7.45113ZM8.69418 8.16069C8.86564 8.16069 9.00462 8.29967 9.00462 8.47113C9.00462 8.64252 8.86564 8.78157 8.69418 8.78157H7.81323V9.59017H8.86141C9.03287 9.59017 9.17185 9.72914 9.17185 9.90061C9.17185 10.0721 9.03287 10.211 8.86141 10.211H7.50279C7.33133 10.211 7.19235 10.0721 7.19235 9.90061V7.36136C7.19235 7.18997 7.33133 7.05092 7.50279 7.05092H8.90323C9.07462 7.05092 9.21367 7.1899 9.21367 7.36136C9.21367 7.53282 9.07462 7.6718 8.90323 7.6718H7.81316V8.16069H8.69418Z" fill="#9C4DF4"/>
</g>
<defs>
<clipPath id="clip0_44_9964">
<rect width="10.2857" height="10.2857" fill="white" transform="translate(0.190918 0.857117)"/>
</clipPath>
</defs>
</svg>
