<svg width="11" height="12" viewBox="0 0 11 12" fill="none" xmlns="http://www.w3.org/2000/svg">
<g clip-path="url(#clip0_44_9977)">
<path d="M5.66677 0.857117C2.82646 0.857117 0.523926 3.15965 0.523926 5.99996C0.523926 8.84028 2.82646 11.1428 5.66677 11.1428C8.50709 11.1428 10.8096 8.84028 10.8096 5.99996C10.8066 3.16092 8.50584 0.860152 5.66677 0.857117ZM7.83263 6.16383C7.79702 6.23524 7.73915 6.29314 7.66771 6.32875V6.33058L4.72894 7.79997C4.54745 7.89065 4.32683 7.81706 4.23612 7.63557C4.21034 7.58397 4.19706 7.52702 4.19738 7.46936V4.53059C4.19729 4.3277 4.36167 4.16317 4.56456 4.16306C4.62162 4.16304 4.67791 4.1763 4.72894 4.20181L7.66771 5.6712C7.84929 5.76169 7.92314 5.98225 7.83263 6.16383Z" fill="#00C968"/>
</g>
<defs>
<clipPath id="clip0_44_9977">
<rect x="0.523926" y="0.857117" width="10.2857" height="10.2857" rx="4" fill="white"/>
</clipPath>
</defs>
</svg>
