<svg width="35" height="35" viewBox="0 0 35 35" fill="none" xmlns="http://www.w3.org/2000/svg">
<g clip-path="url(#clip0_44_8748)">
<path d="M24.166 8.10583L14.5401 22.0542L13.176 33.2129L27.4304 34.9996L29.8046 15.2815L24.166 8.10583Z" fill="#9C4DF4"/>
<path d="M34.1003 0.876104C33.5605 0.33627 32.8173 0.0370612 32.0567 0.00370181C31.2289 -0.032597 30.3803 0.246172 29.7504 0.876104L22.635 8.01501L23.3402 8.7202L24.085 9.46498L26.198 7.32779C28.2028 8.65328 30.9116 8.41477 32.6503 6.67605L34.1003 5.22608C35.3 4.02638 35.3 2.07574 34.1003 0.876104ZM32.6503 3.77605L31.2004 5.22602C30.2541 6.17231 28.8422 6.37254 27.6986 5.82683L31.2004 2.32607C31.6009 1.92556 32.2498 1.92556 32.6503 2.32607C33.0499 2.72564 33.0499 3.37648 32.6503 3.77605Z" fill="#516373"/>
<path d="M26.1981 7.32764C28.2029 8.65313 30.9117 8.41462 32.6505 6.6759L34.1004 5.22593C35.3001 4.02629 35.3001 2.07566 34.1004 0.876019C33.5606 0.336185 32.8175 0.0369757 32.0568 0.00361633L23.3403 8.72012L24.0851 9.4649L26.1981 7.32764ZM31.2006 2.32599C31.6011 1.92547 32.25 1.92547 32.6505 2.32599C33.0501 2.72555 33.0501 3.3764 32.6505 3.77596L31.2006 5.22593C30.2543 6.17223 28.8424 6.37245 27.6988 5.82674L31.2006 2.32599Z" fill="#3E4D59"/>
<path d="M24.3349 7.7242H14.2345L0 21.9093L5.07541 26.9847L10.1508 32.0601L24.3359 17.865V7.7242H24.3349Z" fill="#FF6652"/>
<path d="M24.336 17.865V7.7242L5.07544 26.9847L10.1508 32.0601L24.336 17.865Z" fill="#E64A36"/>
<path d="M19.0092 14.54L18.2649 13.7958L17.5592 13.09L15.9625 14.6867C14.8219 14.1495 13.4276 14.3233 12.4843 15.2649C11.2913 16.458 11.2852 18.3942 12.4652 19.5954C12.9142 20.0526 12.8598 20.6903 12.4843 21.0658C12.0878 21.4623 11.4256 21.4777 11.0157 21.0449C10.6358 20.6439 10.6414 20.0087 11.0344 19.6158L9.58241 18.1658C8.6424 19.1082 8.46843 20.5022 9.00573 21.6434L7.40845 23.2407L8.11419 23.9465L8.85842 24.6907L10.4549 23.0941C11.785 23.7225 13.1002 23.3499 13.9343 22.5158C15.0379 21.4122 15.2349 19.5405 13.9157 18.145C13.5358 17.743 13.5414 17.1089 13.9343 16.7159C14.3263 16.3219 14.9639 16.3173 15.364 16.6967C15.7875 17.0982 15.787 17.7621 15.3843 18.1659L16.8342 19.6159C17.7768 18.6733 17.9512 17.2785 17.4128 16.1364L19.0092 14.54Z" fill="white"/>
<path d="M15.3842 18.1658L16.8342 19.6158C17.7768 18.6732 17.9512 17.2783 17.4128 16.1363L19.0092 14.5399L18.2649 13.7956L15.364 16.6965C15.7874 17.0981 15.787 17.762 15.3842 18.1658Z" fill="white"/>
<path d="M10.4548 23.0941C11.7848 23.7224 13.1 23.3498 13.9341 22.5157C15.0377 21.4121 15.2347 19.5404 13.9155 18.1449L12.465 19.5954C12.914 20.0527 12.8597 20.6903 12.4842 21.0658C12.0876 21.4623 11.4254 21.4776 11.0155 21.0449L8.11401 23.9464L8.85824 24.6907L10.4548 23.0941Z" fill="white"/>
</g>
<defs>
<clipPath id="clip0_44_8748">
<rect width="35" height="35" fill="white"/>
</clipPath>
</defs>
</svg>
