<svg width="12" height="12" viewBox="0 0 12 12" fill="none" xmlns="http://www.w3.org/2000/svg">
<g clip-path="url(#clip0_44_9986)">
<path d="M6.00337 9.20628C6.00337 9.38748 5.89868 9.55209 5.73484 9.62893C5.67149 9.65889 5.60361 9.67337 5.53617 9.67337C5.42938 9.67337 5.32358 9.63667 5.23812 9.5658L2.68455 7.4498H1.32451C1.06659 7.45002 0.857422 7.24074 0.857422 6.98282V5.12187C0.857422 4.86383 1.06659 4.65466 1.32451 4.65466H2.68466L5.23823 2.53866C5.37775 2.42302 5.57122 2.39837 5.73495 2.47576C5.89868 2.55259 6.00349 2.71732 6.00349 2.89841L6.00337 9.20628ZM7.79844 8.4764C7.78705 8.47718 7.77611 8.47762 7.76483 8.47762C7.64145 8.47762 7.5225 8.42886 7.43461 8.34086L7.37214 8.27818C7.2083 8.11467 7.18906 7.85564 7.32704 7.66969C7.67683 7.19807 7.86145 6.639 7.86145 6.05251C7.86145 5.42169 7.65184 4.83 7.25518 4.34135C7.10416 4.15562 7.11809 3.88587 7.28735 3.71672L7.3497 3.65426C7.44301 3.56095 7.56804 3.5101 7.70336 3.51817C7.83514 3.5248 7.95819 3.58682 8.04177 3.68898C8.59199 4.36225 8.88264 5.17968 8.88264 6.05262C8.88264 6.86563 8.6256 7.63951 8.13916 8.29023C8.05791 8.39868 7.93365 8.46678 7.79844 8.4764ZM9.72959 9.9199C9.64513 10.0197 9.52297 10.0797 9.39218 10.0852C9.38577 10.0854 9.37925 10.0856 9.37262 10.0856C9.24891 10.0856 9.13017 10.0368 9.04228 9.94887L8.98092 9.88751C8.80945 9.71615 8.79785 9.44209 8.95373 9.25658C9.70704 8.36065 10.1221 7.22283 10.1221 6.05251C10.1221 4.8352 9.67774 3.66333 8.87125 2.75281C8.70774 2.56796 8.71604 2.28815 8.89005 2.11347L8.95129 2.05211C9.04217 1.9608 9.16024 1.9105 9.29567 1.91481C9.42424 1.91846 9.54585 1.97528 9.63131 2.07146C10.6062 3.16904 11.1431 4.58303 11.1431 6.05251C11.1434 7.46638 10.6413 8.8399 9.72959 9.9199Z" fill="#FF6652"/>
</g>
<defs>
<clipPath id="clip0_44_9986">
<rect width="10.2857" height="10.2857" fill="white" transform="translate(0.857422 0.856934)"/>
</clipPath>
</defs>
</svg>
