<svg width="22" height="19" viewBox="0 0 22 19" fill="none" xmlns="http://www.w3.org/2000/svg">
<g clip-path="url(#clip0_44_9606)">
<path d="M6.94644 18.2806C15.1935 18.2806 19.7035 11.5655 19.7035 5.74242C19.7035 5.55169 19.6996 5.36182 19.6908 5.17281C20.5663 4.55079 21.3272 3.77456 21.9274 2.89092C21.124 3.24188 20.2595 3.47814 19.3526 3.58468C20.2782 3.03912 20.9889 2.17611 21.3242 1.14732C20.4579 1.65206 19.4986 2.01892 18.4771 2.21698C17.6589 1.36044 16.4941 0.824707 15.2043 0.824707C12.7283 0.824707 10.7204 2.79819 10.7204 5.2308C10.7204 5.5766 10.7598 5.91296 10.8367 6.2356C7.11025 6.05131 3.80592 4.29779 1.59448 1.63144C1.20943 2.28267 0.987394 3.03914 0.987394 3.84631C0.987394 5.37517 1.77895 6.72484 2.98265 7.51443C2.24704 7.49209 1.55602 7.29362 0.952048 6.96328C0.951388 6.98177 0.951385 6.9998 0.951385 7.01956C0.951385 9.1537 2.49689 10.9355 4.54846 11.3393C4.1717 11.4402 3.77531 11.4944 3.36618 11.4944C3.07772 11.4944 2.79667 11.4665 2.5235 11.4149C3.09432 13.1658 4.74954 14.44 6.71194 14.4756C5.17736 15.6577 3.24423 16.3618 1.14323 16.3618C0.781767 16.3618 0.424682 16.3416 0.0737305 16.3008C2.05806 17.5509 4.41426 18.2803 6.94668 18.2803" fill="#0A033C"/>
</g>
<defs>
<clipPath id="clip0_44_9606">
<rect width="22" height="17.6" fill="white" transform="translate(0 0.753418)"/>
</clipPath>
</defs>
</svg>
